<?xml version="1.0" encoding="utf-8"?>
<!DOCTYPE svg PUBLIC "-//W3C//DTD SVG 20010904//EN" "http://www.w3.org/TR/2001/REC-SVG-20010904/DTD/svg10.dtd">
<svg version="1.0" xmlns="http://www.w3.org/2000/svg" width="750px" height="422px" viewBox="0 0 750 422" preserveAspectRatio="xMidYMid meet">
 <g fill="#0000000">
  <path d="M165.3 275 c-14 -2.9 -25.2 -14.3 -27.8 -28.2 l-0.7 -3.8 11.6 0 11.6 0 1.4 3.3 c4.5 10.8 19.4 10.1 22.6 -1.1 0.7 -2.4 1 -17.4 0.8 -43.2 l-0.3 -39.5 -11.2 -0.3 -11.3 -0.3 0 -10.4 0 -10.5 23 0 23.1 0 -0.3 54.3 -0.3 54.2 -2.9 6.2 c-5.3 11.5 -15.7 18.5 -29.2 19.7 -3.3 0.3 -7.8 0.1 -10.1 -0.4z"/>
  <path d="M247.6 274.9 c-16.4 -2.7 -31 -17.7 -33.3 -34.1 l-0.6 -3.8 12.2 0 c9.3 0 12.1 0.3 12.1 1.3 0 0.7 1.2 3.6 2.6 6.5 3.4 6.8 7.8 9.5 15.4 9.5 17.8 0 25.7 -20.2 12.3 -31.2 -2 -1.6 -8.5 -4.8 -14.7 -7.1 -21.5 -8.2 -28.3 -13.4 -32.6 -24.6 -3.2 -8.5 -2.6 -22.6 1.2 -30.4 5.1 -10.5 15.5 -17.9 27.9 -20 20.7 -3.6 39.9 10 43.7 30.8 l0.9 5.2 -11.8 0 c-10.5 0 -11.9 -0.2 -11.9 -1.7 0 -2.9 -4.1 -10.3 -6.3 -11.5 -7.1 -3.8 -14.8 -2.7 -19.6 2.7 -2.7 3.1 -3.1 4.3 -3.1 9.5 0 9.2 4.1 13 19.5 18 22.4 7.3 33.2 17.6 35.5 34.1 2.6 18.4 -6.1 35.8 -21.6 43.1 -9.2 4.3 -17.7 5.4 -27.8 3.7z"/>
  <path d="M409 265 l0 -11 23.8 -0.2 23.7 -0.3 0.3 -16.7 0.2 -16.8 -13.7 0 -13.8 0 0.3 -11 0.3 -10.9 13.2 -0.3 13.2 -0.3 0 -17.5 0 -17.5 -23.7 -0.3 -23.8 -0.2 0 -11 0 -11 36 0 36 0 0 68 0 68 -36 0 -36 0 0 -11z"/>
  <path d="M486 265 l0 -11 24 0 24 0 0 -17 0 -17 -13.5 0 -13.5 0 0 -11 0 -10.9 13.3 -0.3 13.2 -0.3 0.3 -17.7 0.2 -17.8 -24 0 -24 0 0 -11 0 -11 36 0 36 0 0 68 0 68 -36 0 -36 0 0 -11z"/>
  <path d="M564 208.5 l0 -67.5 24.5 0 24.5 0 0 10.5 0 10.4 -12.2 0.3 -12.3 0.3 -0.3 56.8 -0.2 56.7 -12 0 -12 0 0 -67.5z"/>
  <path d="M379 229.4 c0 -34 -0.3 -45.5 -1.2 -45.2 -0.6 0.2 -14.7 20.2 -31.2 44.5 l-30.1 44.1 -0.3 -44.4 c-0.1 -26 -0.6 -44.4 -1.1 -44.4 -0.5 0 -4 4.4 -7.7 9.8 -3.7 5.3 -7.1 10.1 -7.5 10.7 -0.5 0.5 -0.9 -7.8 -0.9 -18.5 l0 -19.5 9.3 -13.2 9.2 -13.3 11.3 0 11.2 0 0 28 c0 15.4 0.3 28 0.8 28 0.4 -0.1 9.5 -12.7 20.2 -28 l19.5 -28 11.3 0 11.2 0 0 67.5 0 67.5 -12 0 -12 0 0 -45.6z"/>
 </g>
</svg>